<svg xmlns="http://www.w3.org/2000/svg" width="301.058" height="48.476" viewBox="0 0 301.058 48.476"><defs><style>.a{fill:#fff;}.b{fill:#ffc8c8;}</style></defs><g transform="translate(0 0)"><path class="a" d="M7.508,32.672a24.721,24.721,0,0,0,7.364,4.389,21.882,21.882,0,0,0,7.949,1.658A13.237,13.237,0,0,0,29.7,37.161a4.654,4.654,0,0,0,2.583-4.1,3.253,3.253,0,0,0-1.171-2.632,7.8,7.8,0,0,0-3.8-1.365l-4.583-.586Q12.384,27.117,7.558,23.749a10.559,10.559,0,0,1-4.827-9.117A12.357,12.357,0,0,1,8.436,3.952Q14.142,0,23.894,0A43.873,43.873,0,0,1,36.035,1.609a30.182,30.182,0,0,1,9.7,4.633l-7.7,7.706a16.46,16.46,0,0,0-5.511-3.412A18.1,18.1,0,0,0,25.94,9.269a10.286,10.286,0,0,0-5.8,1.464,4.4,4.4,0,0,0-2.195,3.8,2.99,2.99,0,0,0,.487,1.708,3.835,3.835,0,0,0,1.609,1.267,13.556,13.556,0,0,0,3.024.928q1.9.388,4.732.681,3.606.388,6,.681a28.627,28.627,0,0,1,4,.73,15.066,15.066,0,0,1,2.682.974,20.805,20.805,0,0,1,2.244,1.316,9.764,9.764,0,0,1,3.366,4.146,13.844,13.844,0,0,1,1.221,5.8,13.33,13.33,0,0,1-1.609,6.534,14.335,14.335,0,0,1-4.633,4.975A22.842,22.842,0,0,1,33.794,47.4a38.832,38.832,0,0,1-9.509,1.073,47.657,47.657,0,0,1-6.633-.437A34.124,34.124,0,0,1,11.6,46.624,30.278,30.278,0,0,1,5.85,43.992,56.333,56.333,0,0,1,0,39.987Z" transform="translate(0 0)"/><path class="a" d="M152.3,2.58h15.9V8.722a46.857,46.857,0,0,1,9.752-5.363A25,25,0,0,1,186.73,1.8q16.095,0,16.093,19.7V48.123H185.17a56.59,56.59,0,0,0,1.51-8.874,109.842,109.842,0,0,0,.536-11.118l-.1-1.658q-.194-13.265-8.779-13.263a10.569,10.569,0,0,0-4.975,1.415,19.433,19.433,0,0,0-5.169,4.241V48.123H152.3V2.58Z" transform="translate(-94.372 -1.115)"/><path class="a" d="M349.542,47.181a13.433,13.433,0,0,0,.635-2.294c.1-.616.209-1.51.342-2.681a37.069,37.069,0,0,1-4.1,2.681,27.457,27.457,0,0,1-3.7,1.708,17.148,17.148,0,0,1-3.754.928,34.07,34.07,0,0,1-4.241.243q-8.877,0-13.849-3.7A12.151,12.151,0,0,1,315.9,33.725a12.866,12.866,0,0,1,5.511-11.019q5.511-4,15.458-4c1.038,0,2.016.034,2.925.1s1.887.164,2.925.293,2.21.327,3.511.586,2.891.586,4.777.974q0-5.557-3.024-8.337a11.359,11.359,0,0,0-8-2.78,16.027,16.027,0,0,0-9.946,3.61L327.014,15.4,319.6,8.081a53.046,53.046,0,0,1,11.555-5.85A37.329,37.329,0,0,1,343.495.28,42.776,42.776,0,0,1,353,1.254a19.285,19.285,0,0,1,7.215,3.168,14.6,14.6,0,0,1,4.583,5.606,19.1,19.1,0,0,1,1.609,8.193V47.185H349.542Zm1.27-18.824a25.643,25.643,0,0,0-4.439-1.951,15.07,15.07,0,0,0-4.439-.586,12.565,12.565,0,0,0-7.364,1.951,5.947,5.947,0,0,0-2.78,5.07,6.186,6.186,0,0,0,2.244,4.876A8.167,8.167,0,0,0,339.6,39.67a12.569,12.569,0,0,0,4.34-.73,10.762,10.762,0,0,0,3.56-2.145,9.981,9.981,0,0,0,2.438-3.412,11.414,11.414,0,0,0,.879-4.633v-.392Z" transform="translate(-195.746 -0.173)"/><path class="a" d="M692.352,47.163a13.425,13.425,0,0,0,.635-2.294c.1-.616.209-1.51.343-2.681a37.083,37.083,0,0,1-4.1,2.681,27.457,27.457,0,0,1-3.7,1.708,17.145,17.145,0,0,1-3.754.928,34.073,34.073,0,0,1-4.241.243q-8.877,0-13.849-3.7a12.151,12.151,0,0,1-4.975-10.338,12.866,12.866,0,0,1,5.511-11.019q5.511-4,15.458-4c1.038,0,2.016.034,2.925.1s1.886.164,2.925.293,2.21.327,3.511.586,2.891.586,4.777.974q0-5.557-3.024-8.337a11.359,11.359,0,0,0-8-2.78,16.027,16.027,0,0,0-9.946,3.61l-3.024,2.244-7.413-7.314A52.89,52.89,0,0,1,673.97,2.2,37.33,37.33,0,0,1,686.309.25a42.776,42.776,0,0,1,9.509.974,19.284,19.284,0,0,1,7.215,3.168A14.593,14.593,0,0,1,707.616,10a19.1,19.1,0,0,1,1.609,8.193V47.155H692.352Zm1.267-18.824a25.646,25.646,0,0,0-4.439-1.951,15.069,15.069,0,0,0-4.439-.586,12.566,12.566,0,0,0-7.364,1.951,5.947,5.947,0,0,0-2.78,5.07,6.187,6.187,0,0,0,2.244,4.876,8.167,8.167,0,0,0,5.561,1.951,12.569,12.569,0,0,0,4.34-.73,10.763,10.763,0,0,0,3.56-2.145,9.982,9.982,0,0,0,2.438-3.412,11.412,11.412,0,0,0,.879-4.633Z" transform="translate(-408.167 -0.155)"/></g><g transform="translate(182.81 1.464)"><path class="a" d="M491.36,37.5l9.364-10.532L481.216,3.85H497.7l11.217,14.142,7.9,8.094-8.486,8.874-5.85,7.12-6.048,7.314h-15.8Z" transform="translate(-480.63 -3.85)"/><path class="b" d="M562.087,37.5l-9.364-10.532,19.5-23.114H555.747L544.53,17.992l-7.9,8.094,8.486,8.874,5.85,7.12,6.048,7.314h15.8Z" transform="translate(-515.33 -3.85)"/></g></svg>