<svg xmlns="http://www.w3.org/2000/svg" width="251.776" height="40.538" viewBox="0 0 251.776 40.538"><defs><style>.a{fill:#e4001b;}.b{fill:#dedede;}.c{fill:#f48165;}</style></defs><path class="a" d="M423.18,109.826a20.679,20.679,0,0,0,6.157,3.669,18.3,18.3,0,0,0,6.648,1.387,11.03,11.03,0,0,0,5.75-1.3,3.9,3.9,0,0,0,2.163-3.426,2.721,2.721,0,0,0-.98-2.2,6.516,6.516,0,0,0-3.18-1.141l-3.834-.489q-8.646-1.14-12.683-3.956a8.827,8.827,0,0,1-4.036-7.625,10.329,10.329,0,0,1,4.77-8.932q4.773-3.3,12.928-3.3a36.675,36.675,0,0,1,10.155,1.347,25.276,25.276,0,0,1,8.116,3.874l-6.444,6.442a13.8,13.8,0,0,0-4.609-2.853,15.129,15.129,0,0,0-5.506-1.061,8.625,8.625,0,0,0-4.852,1.223,3.691,3.691,0,0,0-1.835,3.182,2.5,2.5,0,0,0,.409,1.426,3.226,3.226,0,0,0,1.345,1.061,11.231,11.231,0,0,0,2.528.774q1.592.326,3.956.571,3.017.326,5.016.571a24.114,24.114,0,0,1,3.346.612,12.41,12.41,0,0,1,2.242.816,17.566,17.566,0,0,1,1.875,1.1,8.179,8.179,0,0,1,2.815,3.465,11.619,11.619,0,0,1,1.019,4.854,11.147,11.147,0,0,1-1.347,5.464,12.021,12.021,0,0,1-3.874,4.16,19.109,19.109,0,0,1-6.077,2.61,32.449,32.449,0,0,1-7.952.9,40.053,40.053,0,0,1-5.546-.367,28.633,28.633,0,0,1-5.055-1.183,25.189,25.189,0,0,1-4.812-2.2,45.912,45.912,0,0,1-4.894-3.344Z" transform="translate(-416.9 -82.502)"/><path class="a" d="M441.184,83.442h13.293V88.58a39.3,39.3,0,0,1,8.158-4.485,20.871,20.871,0,0,1,7.34-1.307q13.458,0,13.459,16.477V121.53H468.67a47.721,47.721,0,0,0,1.265-7.422,92.406,92.406,0,0,0,.447-9.3l-.08-1.387q-.165-11.094-7.342-11.093a8.858,8.858,0,0,0-4.16,1.181,16.313,16.313,0,0,0-4.323,3.549V121.53H441.184Z" transform="translate(-392.736 -82.217)"/><path class="a" d="M495.4,121.774a11.08,11.08,0,0,0,.531-1.915q.123-.775.285-2.244a31.505,31.505,0,0,1-3.425,2.244,22.425,22.425,0,0,1-3.1,1.426,14.456,14.456,0,0,1-3.14.776,28.54,28.54,0,0,1-3.549.2q-7.422,0-11.581-3.1a10.162,10.162,0,0,1-4.16-8.645,10.764,10.764,0,0,1,4.609-9.217q4.606-3.343,12.928-3.344,1.3,0,2.446.082t2.448.243q1.3.165,2.935.491t4,.816q0-4.65-2.53-6.975a9.49,9.49,0,0,0-6.687-2.324,13.4,13.4,0,0,0-8.319,3.019l-2.53,1.875-6.2-6.117a44.312,44.312,0,0,1,9.666-4.894,31.232,31.232,0,0,1,10.318-1.632,35.66,35.66,0,0,1,7.952.816,16.126,16.126,0,0,1,6.035,2.651,12.181,12.181,0,0,1,3.833,4.688,15.955,15.955,0,0,1,1.347,6.851v24.224Zm1.061-15.741a21.305,21.305,0,0,0-3.711-1.63,12.636,12.636,0,0,0-3.713-.491,10.514,10.514,0,0,0-6.157,1.632,4.972,4.972,0,0,0-2.324,4.242,5.182,5.182,0,0,0,1.875,4.078,6.833,6.833,0,0,0,4.648,1.632,10.517,10.517,0,0,0,3.631-.612,9.011,9.011,0,0,0,2.977-1.794,8.347,8.347,0,0,0,2.039-2.855,9.574,9.574,0,0,0,.734-3.874Z" transform="translate(-366.783 -82.461)"/><path class="a" d="M550.063,121.774a11.048,11.048,0,0,0,.529-1.915q.123-.775.285-2.244a31.312,31.312,0,0,1-3.426,2.244,22.428,22.428,0,0,1-3.1,1.426,14.428,14.428,0,0,1-3.14.776,28.518,28.518,0,0,1-3.549.2q-7.422,0-11.581-3.1a10.162,10.162,0,0,1-4.16-8.645,10.764,10.764,0,0,1,4.609-9.217q4.609-3.343,12.928-3.344,1.3,0,2.446.082t2.448.243q1.3.165,2.937.491t4,.816q0-4.65-2.53-6.975a9.49,9.49,0,0,0-6.687-2.324,13.4,13.4,0,0,0-8.319,3.019l-2.528,1.875-6.2-6.117a44.3,44.3,0,0,1,9.664-4.894,31.232,31.232,0,0,1,10.318-1.632,35.647,35.647,0,0,1,7.952.816,16.127,16.127,0,0,1,6.035,2.651,12.205,12.205,0,0,1,3.834,4.688,15.986,15.986,0,0,1,1.345,6.851v24.224Zm1.059-15.741a21.314,21.314,0,0,0-3.711-1.63,12.631,12.631,0,0,0-3.711-.491,10.516,10.516,0,0,0-6.159,1.632,4.972,4.972,0,0,0-2.324,4.242,5.182,5.182,0,0,0,1.875,4.078,6.838,6.838,0,0,0,4.651,1.632,10.5,10.5,0,0,0,3.629-.612,8.991,8.991,0,0,0,2.977-1.794,8.3,8.3,0,0,0,2.039-2.855,9.574,9.574,0,0,0,.734-3.874Z" transform="translate(-312.396 -82.461)"/><g transform="translate(152.885 1.225)"><path class="b" d="M502.5,111.254l7.831-8.808-16.314-19.33h13.786l9.379,11.825,6.606,6.771-7.094,7.422-4.894,5.953-5.057,6.117H493.532Z" transform="translate(-493.532 -83.116)"/><path class="c" d="M523.748,111.254l-7.831-8.808,16.314-19.33H518.447l-9.381,11.825-6.606,6.771,7.1,7.422,4.892,5.953,5.057,6.117H532.72Z" transform="translate(-484.647 -83.116)"/></g></svg>