<svg xmlns="http://www.w3.org/2000/svg" width="15.732" height="14.573" viewBox="0 0 15.732 14.573"><defs><style>.a{fill:#e4001b;}</style></defs><path class="a" d="M1144.2,161.89h.018a1.145,1.145,0,0,0,1.144-1.144v-.38a1.146,1.146,0,0,0-1.144-1.144h-.018a1.145,1.145,0,0,0-1.142,1.144v.38A1.143,1.143,0,0,0,1144.2,161.89Zm-.658-1.524a.66.66,0,0,1,.658-.658h.018a.657.657,0,0,1,.658.658v.38a.657.657,0,0,1-.658.658h-.018a.66.66,0,0,1-.658-.658Z" transform="translate(-1141.739 -158.232)"/><path class="a" d="M1146.214,160.738h-.478a.245.245,0,0,0-.166.066l-.666.626-.64-.622a.242.242,0,0,0-.168-.07h-.508a1.189,1.189,0,0,0-1.184,1.294v2.784a.744.744,0,0,0,.744.744h.01a.681.681,0,0,0,.288-.064l.128,5.034a.786.786,0,0,0,1.33.54.787.787,0,0,0,1.33-.542l.128-5.028a.738.738,0,0,0,.7-.062.748.748,0,0,0,.334-.622v-2.782a1.19,1.19,0,0,0-1.184-1.3Zm-.766,10.066a.3.3,0,0,1-.3-.3V165.46h-.484V170.5a.3.3,0,0,1-.6.014l-.144-5.69h1.98l-.146,5.686A.3.3,0,0,1,1145.447,170.8Zm1.466-8.808,0,.026v2.794a.26.26,0,0,1-.26.256.257.257,0,0,1-.258-.256v-.592l0-.112h0v-1.166h-.486v1.272l0,.124h-2l-.006-.244h0v-1.152h-.486V164.8a.267.267,0,0,1-.256.274.259.259,0,0,1-.262-.26v-2.794l0-.024a.7.7,0,0,1,.7-.774h.41l.734.714,0,0,.022.02h0l.028.018.006,0,.026.012h0l.03.008.006,0,.028,0h0a.151.151,0,0,0,.03,0h.008l.03-.006h0l.032-.01,0,0h0a.314.314,0,0,0,.056-.034l.006-.006.008-.006.764-.718h.384a.7.7,0,0,1,.7.772Z" transform="translate(-1142.399 -156.716)"/><path class="a" d="M1149.566,161.89h.016a1.144,1.144,0,0,0,1.144-1.144v-.38a1.145,1.145,0,0,0-1.144-1.144h-.016a1.145,1.145,0,0,0-1.144,1.144v.38A1.144,1.144,0,0,0,1149.566,161.89Zm-.658-1.524a.657.657,0,0,1,.658-.658h.016a.657.657,0,0,1,.658.658v.38a.657.657,0,0,1-.658.658h-.016a.657.657,0,0,1-.658-.658Z" transform="translate(-1136.375 -158.232)"/><path class="a" d="M1151.578,160.738h-.48a.249.249,0,0,0-.166.066l-.666.626-.638-.622a.247.247,0,0,0-.17-.07h-.508a1.189,1.189,0,0,0-1.182,1.294v2.784a.743.743,0,0,0,.744.744h.008a.681.681,0,0,0,.288-.064l.128,5.034a1.391,1.391,0,0,0,2.66,0l.128-5.028a.742.742,0,0,0,1.036-.684v-2.782a1.19,1.19,0,0,0-1.182-1.3Zm-.768,10.066a.3.3,0,0,1-.3-.3V165.46h-.484V170.5a.3.3,0,0,1-.6.014l-.144-5.69h1.978l-.144,5.686A.3.3,0,0,1,1150.81,170.8Zm1.466-8.808,0,.026v2.794a.259.259,0,1,1-.518,0v-.592l0-.112h0v-1.166h-.486v1.272l0,.124h-2l-.006-.244h0v-1.152h-.486V164.8a.267.267,0,0,1-.256.274.263.263,0,0,1-.262-.26V162a.7.7,0,0,1,.7-.774h.41l.734.714,0,0,.024.02h0l.028.018.006,0,.028.012h0l.03.008.008,0,.026,0h.006a.151.151,0,0,0,.03,0h.008l.03-.006h0l.032-.01,0,0h0a.257.257,0,0,0,.056-.034l.006-.006.008-.006.766-.718h.382a.7.7,0,0,1,.7.772Z" transform="translate(-1137.034 -156.716)"/><path class="a" d="M1146.884,161.89h.016a1.145,1.145,0,0,0,1.144-1.144v-.38a1.146,1.146,0,0,0-1.144-1.144h-.016a1.145,1.145,0,0,0-1.144,1.144v.38A1.144,1.144,0,0,0,1146.884,161.89Zm-.66-1.524a.66.66,0,0,1,.66-.658h.016a.657.657,0,0,1,.658.658v.38a.657.657,0,0,1-.658.658h-.016a.66.66,0,0,1-.66-.658v-.38Z" transform="translate(-1139.057 -158.232)"/><path class="a" d="M1148.9,160.738h-.48a.245.245,0,0,0-.166.066l-.666.626-.64-.622a.237.237,0,0,0-.168-.07h-.508a1.19,1.19,0,0,0-1.182,1.294v2.784a.743.743,0,0,0,.744.744h.008a.681.681,0,0,0,.288-.064l.128,5.034a1.391,1.391,0,0,0,2.66,0l.128-5.028a.742.742,0,0,0,1.036-.684v-2.782a1.19,1.19,0,0,0-1.182-1.3Zm-.768,10.066a.3.3,0,0,1-.3-.3V165.46h-.484V170.5a.3.3,0,0,1-.6.014l-.146-5.69h1.98l-.146,5.686A.3.3,0,0,1,1148.128,170.8Zm1.466-8.808,0,.026v2.794a.259.259,0,1,1-.518,0v-.592l0-.112h0v-1.166h-.486v1.272l0,.124h-2l-.006-.244h0v-1.152h-.486V164.8a.267.267,0,0,1-.256.274.263.263,0,0,1-.262-.26V162a.7.7,0,0,1,.176-.542.705.705,0,0,1,.522-.232h.41l.734.714,0,0,.022.02h0l.028.018.006,0,.028.012h0l.03.008.006,0,.028,0h0a.171.171,0,0,0,.032,0h.006l.03-.006h0l.032-.01,0,0h0a.257.257,0,0,0,.056-.034l.006-.006.008-.006.764-.718h.384a.7.7,0,0,1,.7.772Z" transform="translate(-1139.716 -156.716)"/><path class="a" d="M1146.719,160.251v-.38a1.146,1.146,0,0,0-1.144-1.144h-.018a1.143,1.143,0,0,0-1.142,1.144v.38a1.145,1.145,0,0,0,1.142,1.144h.018A1.148,1.148,0,0,0,1146.719,160.251Zm-.486,0a.657.657,0,0,1-.658.658h-.018a.659.659,0,0,1-.658-.658v-.38a.662.662,0,0,1,.658-.66h.018a.66.66,0,0,1,.658.66Z" transform="translate(-1140.382 -158.727)"/><path class="a" d="M1149.4,160.251v-.38a1.145,1.145,0,0,0-1.144-1.144h-.016a1.144,1.144,0,0,0-1.144,1.144v.38a1.145,1.145,0,0,0,1.144,1.144h.016A1.146,1.146,0,0,0,1149.4,160.251Zm-.486,0a.657.657,0,0,1-.658.658h-.016a.66.66,0,0,1-.66-.658v-.38a.663.663,0,0,1,.66-.66h.016a.66.66,0,0,1,.658.66Z" transform="translate(-1137.7 -158.727)"/></svg>