<svg xmlns="http://www.w3.org/2000/svg" width="16.292" height="14.046" viewBox="0 0 16.292 14.046"><defs><style>.a{fill:#e4001b;}</style></defs><path class="a" d="M1144.365,137.471v6.742h11.518a.281.281,0,0,0,.28-.282v-6.46Zm6.742,6.18h-6.18v-4.494h1.686v3.932h.562v-5.056h1.686v5.056h.562v-2.248h1.684Zm1.124,0h-.562v-.562h.562Zm0-1.124h-.562v-.562h.562Zm0-1.124h-.562v-.562h.562Zm3.37,2.248h-2.808v-.562h2.808Zm0-1.124h-2.808v-.562h2.808Zm0-1.124h-2.808v-.562h2.808Zm0-1.122h-3.932v-2.248h3.932Z" transform="translate(-1139.871 -130.167)"/><rect class="a" width="0.562" height="1.685" transform="translate(10.113 11.237)"/><rect class="a" width="0.562" height="4.495" transform="translate(7.865 8.428)"/><rect class="a" width="0.562" height="3.371" transform="translate(5.618 9.551)"/><rect class="a" width="2.809" height="1.124" transform="translate(12.36 8.428)"/><path class="a" d="M1142.118,137.471v6.46a.282.282,0,0,0,.282.282h3.65v-6.742Zm3.372,5.618h-2.81V141.4h2.81Zm0-2.808h-2.81V138.6h2.81Z" transform="translate(-1142.118 -130.167)"/><rect class="a" width="1.685" height="0.562" transform="translate(1.124 8.989)"/><rect class="a" width="1.685" height="0.562" transform="translate(1.124 11.799)"/><path class="a" d="M1142.118,135.505v3.37h3.932v-3.37Zm3.372,2.808h-2.81v-2.246h2.81Z" transform="translate(-1142.118 -132.133)"/><rect class="a" width="1.685" height="1.124" transform="translate(1.124 4.495)"/><path class="a" d="M1144.365,135.505v3.37h11.8v-3.37Zm2.81,2.808a1.123,1.123,0,1,1,1.124-1.124A1.125,1.125,0,0,1,1147.175,138.313Zm3.37,0a1.123,1.123,0,1,1,1.124-1.124A1.123,1.123,0,0,1,1150.545,138.313Zm3.372,0a1.123,1.123,0,1,1,1.124-1.124A1.125,1.125,0,0,1,1153.917,138.313Z" transform="translate(-1139.871 -132.133)"/><circle class="a" cx="0.562" cy="0.562" r="0.562" transform="translate(13.484 4.495)"/><circle class="a" cx="0.562" cy="0.562" r="0.562" transform="translate(10.113 4.495)"/><circle class="a" cx="0.562" cy="0.562" r="0.562" transform="translate(6.742 4.495)"/><path class="a" d="M1158.13,133.819H1142.4a.282.282,0,0,0-.282.282v2.528h16.292V134.1A.281.281,0,0,0,1158.13,133.819Zm-14.608,2.248a.843.843,0,1,1,.844-.842A.843.843,0,0,1,1143.522,136.067Zm2.248,0a.843.843,0,1,1,.842-.842A.843.843,0,0,1,1145.77,136.067Zm2.248,0a.843.843,0,1,1,.842-.842A.844.844,0,0,1,1148.018,136.067Z" transform="translate(-1142.118 -133.819)"/><circle class="a" cx="0.281" cy="0.281" r="0.281" transform="translate(1.124 1.124)"/><circle class="a" cx="0.281" cy="0.281" r="0.281" transform="translate(3.371 1.124)"/><circle class="a" cx="0.281" cy="0.281" r="0.281" transform="translate(5.618 1.124)"/></svg>