<svg xmlns="http://www.w3.org/2000/svg" width="14.856" height="14.805" viewBox="0 0 14.856 14.805"><defs><style>.a{fill:#e4001b;}</style></defs><path class="a" d="M1151.8,245.1a2.8,2.8,0,0,1-2.488.356.257.257,0,0,0-.228.032l-1.114.79.288.4,1.01-.718a3.308,3.308,0,0,0,2.808-.454,3.611,3.611,0,0,0,.414-.326l-.336-.364a2.992,2.992,0,0,1-.354.28Z" transform="translate(-1137.708 -235.043)"/><path class="a" d="M1154.432,243.317a2.251,2.251,0,0,0-1.026,2.146l-3.138,2.012-3.138-2.01a2.238,2.238,0,0,0-1.026-2.146,2.366,2.366,0,0,0-1.614-.4,1.832,1.832,0,0,0-1.644,2,1.964,1.964,0,0,0,.066.338,2.357,2.357,0,0,0,.978,1.344,2.243,2.243,0,0,0,2.376.148l2.436,1.728-2.318,1.486a.971.971,0,0,0-.3,1.34l.016.024a.971.971,0,0,0,1.348.26l.018-.012,2.8-1.986,2.8,1.986a.973.973,0,0,0,1.15-1.57l-.064-.042-2.32-1.484,2.438-1.73a2.243,2.243,0,0,0,2.376-.146,2,2,0,1,0-2.216-3.286Zm-7.25,7.854a.487.487,0,0,1-.67-.122.474.474,0,0,1,.126-.66l.012-.008,2.488-1.6.7.5Zm6.916-.486a.478.478,0,0,1-.744.488l-6.94-4.926a.246.246,0,0,0-.29,0,1.717,1.717,0,0,1-1.958-.058,1.875,1.875,0,0,1-.776-1.062,1.335,1.335,0,0,1,.888-1.668,1.3,1.3,0,0,1,.276-.054,1.877,1.877,0,0,1,1.276.322,1.713,1.713,0,0,1,.784,1.794.248.248,0,0,0,.108.268l7.166,4.59A.473.473,0,0,1,1154.1,250.685Zm2.272-4.494a1.716,1.716,0,0,1-1.958.056.253.253,0,0,0-.29,0l-2.738,1.944-.656-.42,3.088-1.98a.247.247,0,0,0,.106-.268,1.725,1.725,0,0,1,.786-1.794,1.5,1.5,0,1,1,1.662,2.464Z" transform="translate(-1142.837 -236.958)"/><path class="a" d="M1145.049,240.361l-.274-.412a3.218,3.218,0,0,0-1.256,3.754l.466-.164a2.726,2.726,0,0,1,1.064-3.178Z" transform="translate(-1142.338 -239.909)"/><path class="a" d="M1144.295,242.407a2.617,2.617,0,0,1-.316-.436l-.428.246a3.254,3.254,0,0,0,.372.518Z" transform="translate(-1142.122 -237.887)"/><path class="a" d="M1151.992,248.393l.706-3.522a2.228,2.228,0,0,0-.206-4.448,2.2,2.2,0,0,0-1.378.48,2.225,2.225,0,0,0-3.09-.59,1.093,1.093,0,0,1-1.966.11,2.228,2.228,0,0,0-.206,4.446l.706,3.524.484-.1-.138-.7h4.742l-.138.694Zm-1.194-1.286.206-1.45-.49-.072-.216,1.522h-.776v-2.724h-.494v2.724h-.776l-.218-1.522-.49.072.208,1.45h-.948l-.5-2.526a.25.25,0,0,0-.242-.2,1.732,1.732,0,1,1,0-3.464,1.716,1.716,0,0,1,1.258.544.247.247,0,0,0,.35.01.32.32,0,0,0,.052-.072,1.729,1.729,0,0,1,3.114,0,.247.247,0,0,0,.33.114.207.207,0,0,0,.072-.052,1.716,1.716,0,0,1,1.258-.544,1.732,1.732,0,1,1,0,3.464.248.248,0,0,0-.242.2l-.506,2.526Z" transform="translate(-1141.843 -239.929)"/></svg>