<svg xmlns="http://www.w3.org/2000/svg" width="117.922" height="18.984" viewBox="0 0 117.922 18.984"><defs><style>.a{fill:#e4001b;}.b{fill:#fde6e6;}</style></defs><path class="a" d="M1165.422,105.6a9.678,9.678,0,0,0,2.884,1.72,8.6,8.6,0,0,0,3.114.648,5.166,5.166,0,0,0,2.692-.61,1.823,1.823,0,0,0,1.012-1.6,1.27,1.27,0,0,0-.458-1.032,3.057,3.057,0,0,0-1.49-.536l-1.794-.228a13.771,13.771,0,0,1-5.94-1.854,4.13,4.13,0,0,1-1.892-3.57,4.842,4.842,0,0,1,2.234-4.184,10.474,10.474,0,0,1,6.056-1.546,17.2,17.2,0,0,1,4.756.63,11.857,11.857,0,0,1,3.8,1.814l-3.018,3.018a6.471,6.471,0,0,0-2.158-1.338,7.1,7.1,0,0,0-2.578-.5,4.042,4.042,0,0,0-2.274.574,1.727,1.727,0,0,0-.858,1.49,1.174,1.174,0,0,0,.19.668,1.538,1.538,0,0,0,.63.5,5.3,5.3,0,0,0,1.184.364c.5.1,1.114.19,1.854.266q1.413.153,2.348.268a11.416,11.416,0,0,1,1.568.286,5.879,5.879,0,0,1,1.05.382,8.211,8.211,0,0,1,.878.516,3.825,3.825,0,0,1,1.318,1.624,5.433,5.433,0,0,1,.478,2.272,5.219,5.219,0,0,1-.63,2.56,5.606,5.606,0,0,1-1.816,1.948,8.941,8.941,0,0,1-2.846,1.222,15.2,15.2,0,0,1-3.724.42,18.477,18.477,0,0,1-2.6-.172,13.2,13.2,0,0,1-2.368-.554,11.88,11.88,0,0,1-2.254-1.03,22.136,22.136,0,0,1-2.292-1.566Z" transform="translate(-1162.48 -92.802)"/><path class="a" d="M1173.826,93.241h6.226v2.406a18.492,18.492,0,0,1,3.82-2.1,9.759,9.759,0,0,1,3.438-.612q6.3,0,6.3,7.718v10.428H1186.7a22.021,22.021,0,0,0,.592-3.476,43.042,43.042,0,0,0,.21-4.356l-.038-.648q-.075-5.2-3.438-5.2a4.155,4.155,0,0,0-1.948.554,7.629,7.629,0,0,0-2.024,1.662v11.46h-6.226Z" transform="translate(-1151.134 -92.669)"/><path class="a" d="M1199.191,111.2a5.248,5.248,0,0,0,.248-.9c.038-.242.082-.592.134-1.05a15.205,15.205,0,0,1-1.6,1.05,10.424,10.424,0,0,1-1.452.668,6.744,6.744,0,0,1-1.472.364,13.455,13.455,0,0,1-1.66.094,8.921,8.921,0,0,1-5.426-1.45,4.766,4.766,0,0,1-1.948-4.05,5.041,5.041,0,0,1,2.158-4.316,10.171,10.171,0,0,1,6.056-1.566c.406,0,.788.012,1.146.038s.738.064,1.146.114.866.128,1.374.23,1.134.228,1.872.382a4.217,4.217,0,0,0-1.184-3.266,4.448,4.448,0,0,0-3.132-1.09,6.274,6.274,0,0,0-3.9,1.414l-1.184.878-2.9-2.864a20.826,20.826,0,0,1,4.526-2.292,14.613,14.613,0,0,1,4.834-.764,16.711,16.711,0,0,1,3.724.382,7.544,7.544,0,0,1,2.826,1.24,5.7,5.7,0,0,1,1.8,2.2,7.471,7.471,0,0,1,.63,3.208V111.2Zm.5-7.372a9.8,9.8,0,0,0-1.738-.764,5.882,5.882,0,0,0-1.738-.23,4.918,4.918,0,0,0-2.884.764,2.329,2.329,0,0,0-1.088,1.986,2.424,2.424,0,0,0,.878,1.91,3.2,3.2,0,0,0,2.178.764,4.949,4.949,0,0,0,1.7-.286,4.274,4.274,0,0,0,1.394-.84,3.9,3.9,0,0,0,.954-1.338,4.461,4.461,0,0,0,.344-1.814Z" transform="translate(-1138.949 -92.783)"/><path class="a" d="M1224.727,111.2a5.271,5.271,0,0,0,.248-.9c.038-.242.082-.592.134-1.05a15.015,15.015,0,0,1-1.606,1.05,10.521,10.521,0,0,1-1.45.668,6.744,6.744,0,0,1-1.472.364,13.468,13.468,0,0,1-1.662.094,8.919,8.919,0,0,1-5.424-1.45,4.765,4.765,0,0,1-1.948-4.05,5.041,5.041,0,0,1,2.158-4.316,10.17,10.17,0,0,1,6.056-1.566c.406,0,.788.012,1.146.038s.738.064,1.146.114.864.128,1.374.23,1.134.228,1.872.382a4.217,4.217,0,0,0-1.184-3.266,4.448,4.448,0,0,0-3.132-1.09,6.274,6.274,0,0,0-3.9,1.414l-1.184.878-2.9-2.864a20.783,20.783,0,0,1,4.526-2.292,14.609,14.609,0,0,1,4.832-.764,16.713,16.713,0,0,1,3.726.382,7.557,7.557,0,0,1,2.826,1.24,5.721,5.721,0,0,1,1.8,2.2,7.471,7.471,0,0,1,.63,3.208V111.2Zm.5-7.372a9.8,9.8,0,0,0-1.738-.764,5.883,5.883,0,0,0-1.738-.23,4.918,4.918,0,0,0-2.884.764,2.331,2.331,0,0,0-1.09,1.986,2.426,2.426,0,0,0,.88,1.91,3.19,3.19,0,0,0,2.176.764,4.931,4.931,0,0,0,1.7-.286,4.261,4.261,0,0,0,1.4-.84,3.93,3.93,0,0,0,.954-1.338,4.461,4.461,0,0,0,.344-1.814Z" transform="translate(-1113.413 -92.783)"/><g transform="translate(71.606 0.572)"><path class="a" d="M1202.485,106.268l3.666-4.126-7.64-9.054h6.456l4.394,5.54,3.094,3.17-3.324,3.476-2.292,2.788-2.368,2.866h-6.188Z" transform="translate(-1198.283 -93.088)"/><path class="b" d="M1212.424,106.268l-3.666-4.126,7.64-9.054h-6.456l-4.394,5.54-3.094,3.17,3.324,3.476,2.292,2.788,2.368,2.866h6.188Z" transform="translate(-1194.112 -93.088)"/></g></svg>