<svg xmlns="http://www.w3.org/2000/svg" width="14.854" height="15.496" viewBox="0 0 14.854 15.496"><defs><style>.a{fill:#e4001b;}</style></defs><path class="a" d="M1148.808,220.278a5.974,5.974,0,0,1-3.048-.834.188.188,0,0,1,.192-.324,5.617,5.617,0,0,0,8.472-4.836.188.188,0,1,1,.376,0,6,6,0,0,1-5.992,5.994Z" transform="translate(-1140.006 -208.864)"/><path class="a" d="M1148.147,219.652a.519.519,0,0,0-.734,0l-.348.35a.144.144,0,0,1-.2,0l-1.408-1.408a.14.14,0,0,1,0-.2l.35-.35a.517.517,0,0,0,0-.732l-1.326-1.326a.515.515,0,0,0-.366-.152.508.508,0,0,0-.366.152l-.36.36a1.883,1.883,0,0,0,0,2.664l3.058,3.06a1.886,1.886,0,0,0,2.666,0l.36-.36a.522.522,0,0,0,0-.732Zm1.058,1.792-.358.358a1.507,1.507,0,0,1-2.132,0l-3.06-3.058a1.507,1.507,0,0,1,0-2.132l.36-.36a.14.14,0,0,1,.1-.04.144.144,0,0,1,.1.04l1.324,1.326a.134.134,0,0,1,.042.1.137.137,0,0,1-.042.1l-.35.35a.518.518,0,0,0,0,.732l1.408,1.408a.52.52,0,0,0,.734,0l.35-.35a.144.144,0,0,1,.2,0l1.324,1.326a.134.134,0,0,1,.042.1.137.137,0,0,1-.042.1Z" transform="translate(-1142.837 -207.126)"/><path class="a" d="M1150.264,211.48a6.174,6.174,0,0,0-4.85,9.992v1.334a.188.188,0,0,0,.19.188h1.566a6.173,6.173,0,1,0,3.094-11.514Zm0,11.97a5.774,5.774,0,0,1-2.946-.806.187.187,0,0,0-.1-.026h-1.43v-1.212a.189.189,0,0,0-.042-.118,5.739,5.739,0,0,1-1.282-3.634,5.8,5.8,0,1,1,5.8,5.8Z" transform="translate(-1141.582 -211.48)"/><g transform="translate(5.768 2.304)"><path class="a" d="M1148.635,215.99a1.181,1.181,0,0,1-1.244-1.322c0-.83.486-2.036,1.244-2.036s1.244,1.206,1.244,2.036a1.18,1.18,0,0,1-1.244,1.322Zm0-2.982c-.412,0-.866.868-.866,1.66,0,.628.292.946.866.946s.868-.318.868-.946C1149.5,213.876,1149.049,213.008,1148.635,213.008Z" transform="translate(-1144.051 -212.632)"/><path class="a" d="M1148.293,218.424a.562.562,0,0,1-.56-.56V214.7a.188.188,0,1,1,.376,0v3.168a.184.184,0,1,0,.368,0V214.7a.189.189,0,0,1,.378,0v3.168A.562.562,0,0,1,1148.293,218.424Z" transform="translate(-1143.709 -210.756)"/><path class="a" d="M1146.933,215.99a1.214,1.214,0,0,1-1.212-1.214V212.82a.188.188,0,0,1,.376,0v1.956a.837.837,0,1,0,1.674,0V212.82a.188.188,0,0,1,.376,0v1.956a1.215,1.215,0,0,1-1.214,1.214Z" transform="translate(-1145.721 -212.632)"/><path class="a" d="M1146.421,214.818a.188.188,0,0,1-.188-.188v-1.81a.189.189,0,0,1,.378,0v1.81A.189.189,0,0,1,1146.421,214.818Z" transform="translate(-1145.209 -212.632)"/><path class="a" d="M1147.959,213.988h-2.05a.189.189,0,0,1,0-.378h2.05a.189.189,0,0,1,0,.378Z" transform="translate(-1145.721 -211.654)"/><path class="a" d="M1146.607,218.424a.562.562,0,0,1-.56-.56V214.7a.188.188,0,1,1,.376,0v3.168a.184.184,0,1,0,.368,0V214.7a.188.188,0,0,1,.376,0v3.168A.56.56,0,0,1,1146.607,218.424Z" transform="translate(-1145.395 -210.756)"/></g></svg>