<svg xmlns="http://www.w3.org/2000/svg" width="15.73" height="15.74" viewBox="0 0 15.73 15.74"><defs><style>.a{fill:#e4001b;}</style></defs><g transform="translate(0.876)"><path class="a" d="M1157.287,196.384l-6.172-6.172L1143.9,183h-.564l-.116.292a5.168,5.168,0,0,0-.374,2.282,3.22,3.22,0,0,0,.9,2.06l5.63,5.63.742-.744,5.2,5.82a1.385,1.385,0,0,0,1.958-1.958Z" transform="translate(-1142.837 -183.002)"/></g><g transform="translate(0 8.96)"><path class="a" d="M1147.213,187.482l-4.41,4.408a1.385,1.385,0,0,0,1.958,1.958l4.408-4.41Z" transform="translate(-1142.399 -187.482)"/></g><g transform="translate(8.429 0.012)"><path class="a" d="M1153.25,185.616l-2.5,2.5-.652-.652,2.5-2.5-.652-.652-2.5,2.5-.654-.652,2.5-2.5-.652-.652-3.262,3.262a2.3,2.3,0,0,0-.672,1.492,1.312,1.312,0,0,1-.094.416l2.118,2.118a1.367,1.367,0,0,1,.418-.094,2.314,2.314,0,0,0,1.492-.67l3.262-3.262Z" transform="translate(-1146.614 -183.008)"/></g></svg>