<svg xmlns="http://www.w3.org/2000/svg" width="43.904" height="40.669" viewBox="0 0 43.904 40.669"><defs><style>.a{fill:#0579ac;}</style></defs><path class="a" d="M4242.244,778.668h.052a3.2,3.2,0,0,0,3.192-3.193v-1.06a3.2,3.2,0,0,0-3.192-3.193h-.052a3.194,3.194,0,0,0-3.186,3.193v1.06A3.19,3.19,0,0,0,4242.244,778.668Zm-1.836-4.253a1.842,1.842,0,0,1,1.836-1.836h.052a1.834,1.834,0,0,1,1.834,1.836v1.06a1.834,1.834,0,0,1-1.834,1.836h-.052a1.842,1.842,0,0,1-1.836-1.836Z" transform="translate(-4235.377 -768.459)"/><path class="a" d="M4249.046,772.738h-1.336a.686.686,0,0,0-.463.184l-1.858,1.747-1.785-1.736a.675.675,0,0,0-.469-.2h-1.417a3.323,3.323,0,0,0-3.306,3.612v7.769a2.076,2.076,0,0,0,2.077,2.076h.028a1.9,1.9,0,0,0,.8-.179l.357,14.048a2.192,2.192,0,0,0,3.711,1.507,2.2,2.2,0,0,0,3.712-1.513l.356-14.031a2.063,2.063,0,0,0,1.96-.173,2.087,2.087,0,0,0,.932-1.736v-7.764a3.32,3.32,0,0,0-3.3-3.617Zm-2.141,28.091a.844.844,0,0,1-.841-.843v-14.07h-1.353v14.07a.842.842,0,0,1-1.684.039l-.4-15.879h5.527l-.406,15.868A.839.839,0,0,1,4246.905,800.829ZM4251,776.249l-.006.073v7.8a.722.722,0,0,1-1.444,0v-1.652l.005-.313h-.005V778.9h-1.358v3.55l-.005.346h-5.592l-.017-.681h-.006V778.9h-1.356v5.18a.744.744,0,0,1-.714.765.726.726,0,0,1-.731-.726v-7.8l-.005-.067a1.962,1.962,0,0,1,1.954-2.16h1.145l2.047,1.992.011.011.063.056h.005l.077.051.019.005.071.034h.011l.084.022.017.006.08.011h.011a.44.44,0,0,0,.084-.006h.022l.083-.017h.005l.088-.028.006-.006h.008a.99.99,0,0,0,.155-.095l.017-.017.021-.017,2.134-2h1.071a1.961,1.961,0,0,1,1.946,2.154Z" transform="translate(-4238.398 -761.514)"/><path class="a" d="M4247.616,778.668h.044a3.194,3.194,0,0,0,3.194-3.193v-1.06a3.2,3.2,0,0,0-3.194-3.193h-.044a3.2,3.2,0,0,0-3.194,3.193v1.06A3.194,3.194,0,0,0,4247.616,778.668Zm-1.836-4.253a1.834,1.834,0,0,1,1.836-1.836h.044a1.834,1.834,0,0,1,1.836,1.836v1.06a1.834,1.834,0,0,1-1.836,1.836h-.044a1.834,1.834,0,0,1-1.836-1.836Z" transform="translate(-4210.803 -768.459)"/><path class="a" d="M4254.409,772.738h-1.338a.693.693,0,0,0-.463.184l-1.858,1.747-1.783-1.736a.681.681,0,0,0-.474-.2h-1.417a3.32,3.32,0,0,0-3.3,3.612v7.769a2.072,2.072,0,0,0,2.077,2.076h.021a1.9,1.9,0,0,0,.8-.179l.356,14.048a3.882,3.882,0,0,0,7.424-.005l.357-14.031a2.072,2.072,0,0,0,2.892-1.909v-7.764a3.325,3.325,0,0,0-3.3-3.617Zm-2.142,28.091a.846.846,0,0,1-.843-.843v-14.07h-1.352v14.07a.841.841,0,0,1-1.682.039l-.4-15.879h5.52l-.4,15.868A.843.843,0,0,1,4252.268,800.829Zm4.091-24.581-.006.073v7.8a.724.724,0,1,1-1.447,0v-1.652l.009-.313h-.009V778.9h-1.354v3.55l-.005.346h-5.592l-.017-.681h-.008V778.9h-1.355v5.18a.745.745,0,0,1-.713.765.733.733,0,0,1-.733-.726v-7.864a1.967,1.967,0,0,1,1.949-2.16h1.144l2.049,1.992.011.011.065.056h0l.079.051.017.005.079.034h.006l.084.022.022.006.07.011h.016a.42.42,0,0,0,.085-.006h.022l.084-.017h0l.09-.028.006-.006h0a.73.73,0,0,0,.156-.095l.016-.017.024-.017,2.137-2h1.065a1.962,1.962,0,0,1,1.949,2.154Z" transform="translate(-4213.818 -761.514)"/><path class="a" d="M4244.933,778.668h.043a3.2,3.2,0,0,0,3.194-3.193v-1.06a3.2,3.2,0,0,0-3.194-3.193h-.043a3.2,3.2,0,0,0-3.192,3.193v1.06A3.192,3.192,0,0,0,4244.933,778.668Zm-1.843-4.253a1.842,1.842,0,0,1,1.843-1.836h.043a1.834,1.834,0,0,1,1.836,1.836v1.06a1.834,1.834,0,0,1-1.836,1.836h-.043a1.842,1.842,0,0,1-1.843-1.836v-1.06Z" transform="translate(-4223.088 -768.459)"/><path class="a" d="M4251.728,772.738h-1.338a.681.681,0,0,0-.463.184l-1.858,1.747-1.786-1.736a.664.664,0,0,0-.469-.2h-1.42a3.318,3.318,0,0,0-3.3,3.612v7.769a2.072,2.072,0,0,0,2.076,2.076h.022a1.9,1.9,0,0,0,.8-.179l.357,14.048a3.883,3.883,0,0,0,7.424-.005l.357-14.031a2.072,2.072,0,0,0,2.891-1.909v-7.764a3.323,3.323,0,0,0-3.3-3.617Zm-2.142,28.091a.845.845,0,0,1-.842-.843v-14.07h-1.352v14.07a.84.84,0,0,1-1.679.039l-.409-15.879h5.526l-.409,15.868A.835.835,0,0,1,4249.585,800.829Zm4.091-24.581-.005.073v7.8a.723.723,0,1,1-1.445,0v-1.652l.006-.313h-.006V778.9h-1.356v3.55l-.005.346h-5.593l-.015-.681h-.006V778.9h-1.357v5.18a.745.745,0,0,1-.714.765.707.707,0,0,1-.512-.212.7.7,0,0,1-.218-.514v-7.864a1.941,1.941,0,0,1,.49-1.513,1.968,1.968,0,0,1,1.455-.647h1.146l2.049,1.992.011.011.06.056h.008l.076.051.017.005.078.034h.006l.084.022.017.006.078.011h.011a.465.465,0,0,0,.087-.006h.019l.082-.017h.006l.089-.028.005-.006h.005a.736.736,0,0,0,.158-.095l.017-.017.022-.017,2.131-2h1.071a1.962,1.962,0,0,1,1.949,2.154Z" transform="translate(-4226.107 -761.514)"/><path class="a" d="M4246.844,774.98v-1.06a3.2,3.2,0,0,0-3.191-3.193h-.052a3.19,3.19,0,0,0-3.187,3.193v1.06a3.194,3.194,0,0,0,3.187,3.192h.052A3.2,3.2,0,0,0,4246.844,774.98Zm-1.354,0a1.836,1.836,0,0,1-1.837,1.836h-.052a1.837,1.837,0,0,1-1.834-1.836v-1.06a1.845,1.845,0,0,1,1.834-1.842h.052a1.844,1.844,0,0,1,1.837,1.842Z" transform="translate(-4229.159 -770.727)"/><path class="a" d="M4249.527,774.98v-1.06a3.2,3.2,0,0,0-3.195-3.193h-.043a3.191,3.191,0,0,0-3.191,3.193v1.06a3.194,3.194,0,0,0,3.191,3.192h.043A3.2,3.2,0,0,0,4249.527,774.98Zm-1.357,0a1.834,1.834,0,0,1-1.837,1.836h-.043a1.842,1.842,0,0,1-1.842-1.836v-1.06a1.85,1.85,0,0,1,1.842-1.842h.043a1.842,1.842,0,0,1,1.837,1.842Z" transform="translate(-4216.872 -770.727)"/></svg>