<svg xmlns="http://www.w3.org/2000/svg" width="39.98" height="40.004" viewBox="0 0 39.98 40.004"><defs><style>.a{fill:#e4001b;}</style></defs><g transform="translate(2.226)"><path class="a" d="M1179.563,217.014l-15.687-15.687L1145.551,183h-1.434l-.295.742a13.133,13.133,0,0,0-.951,5.8,8.183,8.183,0,0,0,2.293,5.236l14.309,14.309,1.886-1.891,13.227,14.792a3.519,3.519,0,1,0,4.976-4.977Z" transform="translate(-1142.838 -183.002)"/></g><g transform="translate(0 22.773)"><path class="a" d="M1154.634,187.482l-11.209,11.2a3.519,3.519,0,0,0,4.976,4.976l11.2-11.208Z" transform="translate(-1142.4 -187.482)"/></g><g transform="translate(21.424 0.03)"><path class="a" d="M1163.48,189.637,1157.126,196l-1.657-1.657,6.354-6.359-1.657-1.657-6.354,6.354-1.662-1.657,6.359-6.354-1.657-1.657-8.291,8.291a5.835,5.835,0,0,0-1.708,3.792,3.336,3.336,0,0,1-.239,1.057l5.383,5.383a3.475,3.475,0,0,1,1.063-.239,5.88,5.88,0,0,0,3.792-1.7l8.291-8.291Z" transform="translate(-1146.615 -183.008)"/></g></svg>