<svg xmlns="http://www.w3.org/2000/svg" width="37.165" height="36.424" viewBox="0 0 37.165 36.424"><defs><style>.a{fill:#b40008;}</style></defs><g transform="translate(-1.521 -2)"><path class="a" d="M33.976,8.076H31.545V6.254a4.254,4.254,0,1,0-8.507,0V8.076H20.608A.608.608,0,0,0,20,8.684V22.052a1.828,1.828,0,0,0,1.823,1.823h7.9V22.66h-7.9a.608.608,0,0,1-.608-.608v-.608h8.507V20.229H21.215V9.292h1.823v1.823h1.215V9.292H30.33v1.823h1.215V9.292h1.823v1.823h1.215V8.684A.608.608,0,0,0,33.976,8.076Zm-3.646,0H24.254V6.254a3.038,3.038,0,1,1,6.076,0Z" transform="translate(-7.25)"/><path class="a" d="M49.545,19H38.608a.608.608,0,0,0-.608.608v9.115a1.828,1.828,0,0,0,1.823,1.823H48.33a1.828,1.828,0,0,0,1.823-1.823V19.608A.608.608,0,0,0,49.545,19Zm-.608,9.722a.608.608,0,0,1-.608.608H39.823a.608.608,0,0,1-.608-.608v-.608h9.722Zm0-1.823H39.215V20.215h9.722Z" transform="translate(-14.313 -6.67)"/><path class="a" d="M46.038,27.254a3.042,3.042,0,0,0,3.038-3.038V23H47.861v1.215a1.823,1.823,0,1,1-3.646,0V23H43v1.215a3.042,3.042,0,0,0,3.038,3.038Z" transform="translate(-16.275 -8.239)"/><path class="a" d="M38.472,42.931a2.5,2.5,0,0,0-3.145-1.253L29.9,43.653a2.431,2.431,0,0,0-1.929-1.8l-7.33-1.292a9.126,9.126,0,0,0-4.7.411L15,41.321a10.28,10.28,0,0,0-2.491,1.324l-.134-.369a.608.608,0,0,0-.778-.365L4.742,44.4a.608.608,0,0,0-.365.778L1.521,46.221l.416,1.142,2.856-1.039,2.479,6.81,1.142-.416L5.73,45.338l5.712-2.078,3.118,8.568-1.458.532.416,1.141,2.028-.741a.608.608,0,0,0,.365-.779l-.208-.571,1.4-.509a6.65,6.65,0,0,1,2.748-.388l2.883.2a7.8,7.8,0,0,0,3.248-.458l11.108-4.043a2.431,2.431,0,0,0,1.386-3.281ZM37.356,44.44a1.206,1.206,0,0,1-.685.629L25.563,49.112a6.619,6.619,0,0,1-2.748.387l-2.883-.2a7.874,7.874,0,0,0-3.247.458l-1.4.51-2.342-6.436a9.067,9.067,0,0,1,2.473-1.371l.943-.343a7.908,7.908,0,0,1,4.074-.357l7.327,1.292a1.215,1.215,0,1,1-.422,2.394l-6.583-1.161-.211,1.2,6.583,1.161a2.42,2.42,0,0,0,2.738-1.683l5.877-2.14a1.294,1.294,0,0,1,1.621.608,1.221,1.221,0,0,1-.005,1.012Z" transform="translate(0 -15.076)"/></g></svg>