<svg xmlns="http://www.w3.org/2000/svg" width="36.372" height="36.372" viewBox="0 0 36.372 36.372"><defs><style>.a{fill:#bfd024;}</style></defs><g transform="translate(-2 -2)"><path class="a" d="M35.341,5.637H32.31V4.425a2.425,2.425,0,1,0-4.85,0V5.637h-4.85V4.425a2.425,2.425,0,0,0-4.85,0V5.637h-4.85V4.425a2.425,2.425,0,1,0-4.85,0V5.637H5.031A3.031,3.031,0,0,0,2,8.668V32.916a3.031,3.031,0,0,0,3.031,3.031H22a.606.606,0,1,0,0-1.212H5.031a1.824,1.824,0,0,1-1.819-1.819V14.124H37.16V24.43a.606.606,0,0,0,1.212,0V8.668a3.031,3.031,0,0,0-3.031-3.031ZM28.673,4.425a1.212,1.212,0,1,1,2.425,0V8.062a1.212,1.212,0,1,1-2.425,0Zm-9.7,0a1.212,1.212,0,1,1,2.425,0V8.062a1.212,1.212,0,0,1-2.425,0Zm-9.7,0a1.212,1.212,0,0,1,2.425,0V8.062a1.212,1.212,0,0,1-2.425,0ZM37.16,12.912H3.212V8.668A1.824,1.824,0,0,1,5.031,6.85H8.062V8.062a2.425,2.425,0,0,0,4.85,0V6.85h4.85V8.062a2.425,2.425,0,0,0,4.85,0V6.85h4.85V8.062a2.425,2.425,0,1,0,4.85,0V6.85h3.031A1.824,1.824,0,0,1,37.16,8.668Z"/><path class="a" d="M26.85,28.212A1.212,1.212,0,0,0,25.637,27H23.212A1.212,1.212,0,0,0,22,28.212v1.819a1.212,1.212,0,0,0,1.212,1.212h2.425a1.212,1.212,0,0,0,1.212-1.212Zm-3.637,1.819V28.212h2.425v1.819Z" transform="translate(-7.876 -9.845)"/><path class="a" d="M14.85,28.212A1.212,1.212,0,0,0,13.637,27H11.212A1.212,1.212,0,0,0,10,28.212v1.819a1.212,1.212,0,0,0,1.212,1.212h2.425a1.212,1.212,0,0,0,1.212-1.212Zm-3.637,1.819V28.212h2.425v1.819Z" transform="translate(-3.15 -9.845)"/><path class="a" d="M49.637,31.243a1.212,1.212,0,0,0,1.212-1.212V28.212A1.212,1.212,0,0,0,49.637,27H47.212A1.212,1.212,0,0,0,46,28.212v1.819a1.212,1.212,0,0,0,1.212,1.212Zm-2.425-3.031h2.425v1.819H47.212Z" transform="translate(-17.327 -9.845)"/><path class="a" d="M26.85,37.212A1.212,1.212,0,0,0,25.637,36H23.212A1.212,1.212,0,0,0,22,37.212v1.819a1.212,1.212,0,0,0,1.212,1.212h2.425a1.212,1.212,0,0,0,1.212-1.212Zm-3.637,1.819V37.212h2.425v1.819Z" transform="translate(-7.876 -13.389)"/><path class="a" d="M14.85,37.212A1.212,1.212,0,0,0,13.637,36H11.212A1.212,1.212,0,0,0,10,37.212v1.819a1.212,1.212,0,0,0,1.212,1.212h2.425a1.212,1.212,0,0,0,1.212-1.212Zm-3.637,1.819V37.212h2.425v1.819Z" transform="translate(-3.15 -13.389)"/><path class="a" d="M25.637,45H23.212A1.212,1.212,0,0,0,22,46.212v1.819a1.212,1.212,0,0,0,1.212,1.212h2.425a1.212,1.212,0,0,0,1.212-1.212V46.212A1.212,1.212,0,0,0,25.637,45Zm-2.425,3.031V46.212h2.425v1.819Z" transform="translate(-7.876 -16.933)"/><path class="a" d="M35.212,31.243h2.425a1.212,1.212,0,0,0,1.212-1.212V28.212A1.212,1.212,0,0,0,37.637,27H35.212A1.212,1.212,0,0,0,34,28.212v1.819A1.212,1.212,0,0,0,35.212,31.243Zm0-3.031h2.425v1.819H35.212Z" transform="translate(-12.601 -9.845)"/><path class="a" d="M34,39.031a1.212,1.212,0,0,0,1.212,1.212.606.606,0,1,0,0-1.212V37.212h2.425a.606.606,0,1,0,0-1.212H35.212A1.212,1.212,0,0,0,34,37.212Z" transform="translate(-12.601 -13.389)"/><path class="a" d="M13.637,45H11.212A1.212,1.212,0,0,0,10,46.212v1.819a1.212,1.212,0,0,0,1.212,1.212h2.425a1.212,1.212,0,0,0,1.212-1.212V46.212A1.212,1.212,0,0,0,13.637,45Zm-2.425,3.031V46.212h2.425v1.819Z" transform="translate(-3.15 -16.933)"/><path class="a" d="M43.881,36a7.881,7.881,0,1,0,7.881,7.881A7.881,7.881,0,0,0,43.881,36Zm0,14.549a6.668,6.668,0,1,1,6.668-6.668A6.668,6.668,0,0,1,43.881,50.549Z" transform="translate(-13.389 -13.389)"/><path class="a" d="M49.651,44.693l-4.715,4.715-2.143-2.144a.606.606,0,1,0-.857.857l2.572,2.572a.606.606,0,0,0,.857,0l5.144-5.144a.606.606,0,1,0-.857-.857Z" transform="translate(-15.656 -16.742)"/></g></svg>